<svg width="138" height="43" viewBox="0 0 138 43" fill="none" xmlns="http://www.w3.org/2000/svg">
<path fill-rule="evenodd" clip-rule="evenodd" d="M83.3755 30.7089C83.3755 31.5743 84.6021 33.6041 85.7653 34.5043C87.1534 35.6834 88.5571 36.5745 91.9106 36.5745C96.3506 36.5745 99.7628 32.6195 99.7628 27.6035C99.7628 22.7194 96.1399 18.7097 91.2278 18.6326C89.3154 18.7097 87.7988 19.5205 87.4723 19.6677V6.31104C87.4723 5.87485 87.1187 5.52124 86.6825 5.52124H84.1653C83.7291 5.52124 83.3755 5.86117 83.3755 6.29736C83.3755 10.422 83.3755 29.6258 83.3755 30.7089ZM87.1309 23.8081C87.1309 23.769 88.6172 22.773 90.8864 22.773C93.6703 22.773 95.666 24.4646 95.666 27.6035C95.666 30.3107 93.8826 32.7791 91.2278 32.7791C88.5747 32.7791 87.3433 30.6571 87.1309 30.0188V23.8081ZM110.688 37.2645C115.609 37.2645 119.564 33.1636 119.564 28.1177C119.564 23.4237 115.609 19.3228 110.688 19.3228C105.766 19.3228 101.811 23.4237 101.811 28.1177C101.811 33.1636 105.766 37.2645 110.688 37.2645ZM110.523 23.463C113.353 23.463 115.467 25.6143 115.467 28.127C115.467 30.9337 113.353 33.1241 110.523 33.1241C108.023 33.1241 105.908 30.9337 105.908 28.127C105.908 25.6143 108.023 23.463 110.523 23.463ZM134.245 23.8081C134.245 23.769 132.758 22.773 130.489 22.773C127.705 22.773 125.709 24.4646 125.709 27.6035C125.709 30.3107 127.493 32.7791 130.148 32.7791C132.801 32.7791 134.032 30.6571 134.245 30.0188V23.8081ZM138 30.7089C138 31.5743 136.773 33.6041 135.61 34.5042C134.222 35.6834 132.818 36.5745 129.465 36.5745C125.025 36.5745 121.613 32.6195 121.613 27.6035C121.613 22.7194 125.236 18.7097 130.148 18.6326C132.06 18.7097 133.577 19.5205 133.903 19.6677V6.31103C133.903 5.87484 134.257 5.52124 134.693 5.52124H137.21C137.646 5.52124 138 5.86116 138 6.29735C138 10.422 138 29.6258 138 30.7089Z" fill="white"/>
<path fill-rule="evenodd" clip-rule="evenodd" d="M71.085 31.399C71.085 34.3318 72.5753 36.5745 75.8646 36.5745C77.3418 36.5745 79.6832 35.6882 80.891 35.1861C81.3141 35.0103 81.4808 34.508 81.2601 34.1065L80.3154 32.3878C80.1159 32.025 79.6704 31.877 79.2881 32.0359C78.5751 32.3324 77.4736 32.7518 76.8888 32.7791C76.114 32.7365 75.2249 32.4778 75.1818 31.054V23.4632H79.6443C80.1966 23.4632 80.6443 23.0155 80.6443 22.4632V20.3227C80.6443 19.7705 80.1966 19.3227 79.6443 19.3227H75.1818V11.1416C75.1818 10.7054 74.8282 10.3518 74.392 10.3518H71.8748C71.4386 10.3518 71.085 10.7054 71.085 11.1416V19.3227H69.3538C68.8015 19.3227 68.3538 19.7705 68.3538 20.3227V22.4632C68.3538 23.0154 68.8015 23.4632 69.3538 23.4632H71.085C71.085 23.4632 71.085 28.4662 71.085 31.399Z" fill="white"/>
<rect x="62.4112" y="24.3897" width="3.69141" height="0.405426" fill="white" stroke="#979797" stroke-width="0.405426"/>
<path fill-rule="evenodd" clip-rule="evenodd" d="M50.6007 35.0745C50.6007 35.9029 51.2723 36.5745 52.1007 36.5745H53.1976C54.026 36.5745 54.6976 35.9029 54.6976 35.0745V23.4631H62.2084V35.0745C62.2084 35.9029 62.88 36.5745 63.7084 36.5745H64.8053C65.6337 36.5745 66.3053 35.9029 66.3053 35.0745V20.3227C66.3053 19.7704 65.8576 19.3227 65.3053 19.3227H54.6976V13.8021C54.8293 10.524 56.7275 9.28401 58.7944 9.66167C60.4004 9.28401 62.8913 11.0418 62.8913 11.0418H63.1767C63.4267 11.0418 63.6619 10.9234 63.8109 10.7227L65.2185 8.82586C65.4509 8.51273 65.42 8.07687 65.1457 7.79969L64.9397 7.59145C64.9397 7.59145 61.3942 5.52124 58.7944 5.52124C54.2214 5.52124 50.7214 8.38608 50.6007 13.8021V18.3227C50.6007 18.875 50.153 19.3227 49.6007 19.3227H48.8695C48.3172 19.3227 47.8695 19.7704 47.8695 20.3227V22.4631C47.8695 23.0154 48.3172 23.4631 48.8695 23.4631H49.6007C50.153 23.4631 50.6007 23.9108 50.6007 24.4631V35.0745Z" fill="white"/>
<path d="M40.9741 21.4871C40.9741 32.2495 32.2495 40.9741 21.4871 40.9741C10.7247 40.9741 2 32.2495 2 21.4871C2 10.7247 10.7247 2 21.4871 2C32.2495 2 40.9741 10.7247 40.9741 21.4871Z" stroke="white" stroke-width="4"/>
<path fill-rule="evenodd" clip-rule="evenodd" d="M12.397 13.4845C12.397 16.1242 14.5751 18.2642 17.262 18.2642C17.5534 18.2642 17.8389 18.239 18.1162 18.1907L20.4899 22.7749C20.2359 29.0935 12.7565 31.3288 12.7565 31.3288C12.26 31.4702 12.8398 32.8608 13.199 33.6199C13.3352 33.9078 13.6552 34.0462 13.9559 33.9414C16.0403 33.2146 23.7483 30.0337 23.7483 22.7324C23.7483 22.5234 23.7245 22.2838 23.6215 22.095L20.714 16.8524C21.5874 15.9884 22.127 14.7984 22.127 13.4845C22.127 10.8448 19.9488 8.70483 17.262 8.70483C14.5751 8.70483 12.397 10.8448 12.397 13.4845ZM15.5245 13.3138C15.5245 14.3508 16.3802 15.1915 17.4357 15.1915C18.4913 15.1915 19.347 14.3508 19.347 13.3138C19.347 12.2768 18.4913 11.4361 17.4357 11.4361C16.3802 11.4361 15.5245 12.2768 15.5245 13.3138ZM25.663 28.5306H28.382V33.2934C28.382 33.6664 28.6843 33.9687 29.0573 33.9687H30.4867C30.8597 33.9687 31.162 33.6664 31.162 33.2934V27.165C31.162 26.9831 31.127 26.8093 31.0635 26.65C31.0881 26.5151 31.101 26.3761 31.101 26.2341C31.101 25.9671 30.8846 25.7506 30.6176 25.7506H25.663C24.8953 25.7506 24.273 26.3729 24.273 27.1406C24.273 27.9083 24.8953 28.5306 25.663 28.5306ZM23.517 16.3864C23.517 17.9891 24.8394 19.2884 26.4707 19.2884C28.102 19.2884 29.4245 17.9891 29.4245 16.3864C29.4245 14.7837 28.102 13.4845 26.4707 13.4845C24.8394 13.4845 23.517 14.7837 23.517 16.3864Z" fill="white"/>
</svg>
